<?xml version="1.0" encoding="UTF-8" standalone="no"?>
<svg width="400px" height="400px" viewBox="0 0 400 400" version="1.1" xmlns="http://www.w3.org/2000/svg" xmlns:xlink="http://www.w3.org/1999/xlink" xmlns:sketch="http://www.bohemiancoding.com/sketch/ns">
    <!-- Generator: Sketch 3.2 (9961) - http://www.bohemiancoding.com/sketch -->
    <title>NOAA_logo</title>
    <desc>Created with Sketch.</desc>
    <defs>
        <circle id="path-1" cx="200" cy="200" r="200"></circle>
    </defs>
    <g id="Page-1" stroke="none" stroke-width="1" fill="none" fill-rule="evenodd" sketch:type="MSPage">
        <g id="NOAA_logo" sketch:type="MSLayerGroup">
            <g id="New-Mask-Group">
                <mask id="mask-2" sketch:name="Mask" fill="white">
                    <use xlink:href="#path-1"></use>
                </mask>
                <use id="Mask" sketch:type="MSShapeGroup" xlink:href="#path-1"></use>
                <path d="M380.776551,112.08811 C380.887188,112.042586 405.588581,160.960291 401.205554,212.965303 L401.205554,212.965303 C398.821664,300.308662 321.628682,399.390356 206.591098,402.608361 L190.550997,402.274516 C72.0046216,396.382837 -0.844002005,295.797383 -0.510159398,204.90414 L-0.510159398,204.90414 C-0.217435589,188.006917 -0.285476692,169.117895 6.84171629,145.755779 L14.1098867,147.927709 C44.4910155,159.410516 77.2677794,248.178336 183.826667,253.231008 C188.452491,253.450306 197.337985,253.654917 197.317915,253.69212 C190.420301,260.573584 151.202627,276.749764 133.40814,281.010416 C138.061373,279.896301 133.044431,280.89587 133.40814,281.010416 L133.40814,281.010416 C176.265283,307.576832 219.122426,256.449013 274.761514,248.930216 L291.80412,247.927709 C288.545975,237.65202 273.877474,238.519429 272.505875,238.654526 C234.010226,242.444281 243.627048,238.028942 242.430687,238.4039 C301.578556,219.857534 335.663769,172.489113 378.233093,114.885143 L380.776551,112.08811 L380.776551,112.08811 Z" id="path3758" fill="#007EC6" sketch:type="MSShapeGroup" mask="url(#mask-2)"></path>
                <path d="M202.665263,-0.276294737 C87.122015,0.139784461 36.2487298,84.9367419 36.2487298,84.9367419 C61.8126396,97.4680702 88.3394085,135.206456 88.7128922,135.730717 C117.322025,175.870617 157.191228,238.086707 208.848692,239.276201 C225.38808,239.657033 236.389223,229.763158 248.946977,217.601895 C294.805774,173.18813 301.226115,91.0761103 360.701742,79.5087695 C359.974546,79.5066566 338.170035,46.6745784 295.538835,23.619049 C290.678266,21.4185674 255.964521,0.559290226 202.665263,-0.276294737 Z M166.794516,77.9294737 L180.526226,77.9294737 C186.065845,77.9294737 190.525534,82.3891629 190.525534,87.928782 L190.525534,120.979789 C190.525534,126.519409 186.065845,130.979098 180.526226,130.979098 L166.794516,130.979098 C161.254897,130.979098 156.795208,126.519409 156.795208,120.979789 L156.795208,87.928782 C156.795208,82.3891629 161.254897,77.9294737 166.794516,77.9294737 L166.794516,77.9294737 Z M170.453053,87.0322306 L176.867699,87.0322306 C178.144922,87.0322306 179.173163,88.0604612 179.173163,89.3376842 L179.173163,119.570887 C179.173163,120.84811 178.144922,121.876341 176.867699,121.876341 L170.453053,121.876341 C169.17583,121.876341 168.147599,120.84811 168.147599,119.570887 L168.147599,89.3376842 C168.147599,88.0604612 169.17583,87.0322306 170.453053,87.0322306 L170.453053,87.0322306 Z M210.22811,77.9407318 C204.688491,77.9407318 200.234386,82.3948471 200.234376,87.9344662 L200.234376,130.979579 L211.575228,130.979579 L211.575228,109.676321 L222.602797,109.676321 L222.602797,130.979579 L233.943649,130.979579 L233.943649,87.9344662 C233.943649,82.3948471 229.489524,77.9407318 223.949915,77.9407318 L210.22811,77.9407318 L210.22811,77.9407318 Z M213.893524,87.0259449 L220.284501,87.0259449 C221.561714,87.0259449 222.602797,88.0670175 222.602797,89.3442406 L222.602797,100.591108 L211.575228,100.591108 L211.575228,89.3442406 C211.575228,88.0670175 212.616301,87.0259449 213.893524,87.0259449 L213.893524,87.0259449 Z M253.646226,77.9407318 C248.106607,77.9407318 243.652501,82.3948471 243.652491,87.9344662 L243.652491,130.979579 L254.993343,130.979579 L254.993343,109.676321 L266.020912,109.676321 L266.020912,130.979579 L277.361764,130.979579 L277.361764,87.9344662 C277.361764,82.3948471 272.907639,77.9407318 267.36803,77.9407318 L253.646226,77.9407318 L253.646226,77.9407318 Z M257.311639,87.0259449 L263.702617,87.0259449 C264.97983,87.0259449 266.020912,88.0670175 266.020912,89.3442406 L266.020912,100.591108 L254.993343,100.591108 L254.993343,89.3442406 C254.993343,88.0670175 256.034416,87.0259449 257.311639,87.0259449 L257.311639,87.0259449 Z M113.345764,77.9407318 L113.345764,130.979579 L124.717945,130.979579 L124.717945,89.3442406 C124.717935,88.0670175 125.727689,87.0259449 127.004912,87.0259449 L133.427218,87.0259449 C134.704441,87.0259449 135.745514,88.0670175 135.745514,89.3442406 L135.745514,130.979579 L147.086366,130.979579 L147.086366,87.9344662 C147.086366,82.3948471 142.632251,77.9407318 137.092632,77.9407318 L113.345764,77.9407318 L113.345764,77.9407318 Z" id="path3766" fill="#263F78" sketch:type="MSShapeGroup" mask="url(#mask-2)"></path>
            </g>
            <path d="M380.071065,112.863931 C374.377861,101.120346 367.569692,90.0177477 359.784116,79.6936958 L359.784116,79.6936958 C301.15872,91.9235859 294.56884,173.417599 248.946977,217.601895 C236.389223,229.763158 225.38808,239.657033 208.848692,239.276201 C157.191228,238.086707 117.322025,175.870617 88.7128922,135.730717 C88.3399317,135.207191 61.8869053,97.5737245 36.3561647,84.9895515 C23.4772853,103.28073 13.5874787,123.828178 7.39694348,145.921697 L14.1098867,147.927709 C44.4910155,159.410516 77.2677794,248.178336 183.826667,253.231008 C188.452491,253.450306 197.337985,253.654917 197.317915,253.69212 C190.420301,260.573584 151.202627,276.749764 133.40814,281.010416 C138.061373,279.896301 133.044431,280.89587 133.40814,281.010416 C176.265283,307.576832 219.122426,256.449013 274.761514,248.930216 L291.80412,247.927709 C288.545975,237.65202 273.877474,238.519429 272.505875,238.654526 C234.010226,242.444281 243.627048,238.028942 242.430687,238.4039 C301.578556,219.857534 335.663769,172.489113 378.233093,114.885143 L380.071065,112.863931 Z M166.794516,77.9294737 L180.526226,77.9294737 C186.065845,77.9294737 190.525534,82.3891629 190.525534,87.928782 L190.525534,120.979789 C190.525534,126.519409 186.065845,130.979098 180.526226,130.979098 L166.794516,130.979098 C161.254897,130.979098 156.795208,126.519409 156.795208,120.979789 L156.795208,87.928782 C156.795208,82.3891629 161.254897,77.9294737 166.794516,77.9294737 Z M170.453053,87.0322306 L176.867699,87.0322306 C178.144922,87.0322306 179.173163,88.0604612 179.173163,89.3376842 L179.173163,119.570887 C179.173163,120.84811 178.144922,121.876341 176.867699,121.876341 L170.453053,121.876341 C169.17583,121.876341 168.147599,120.84811 168.147599,119.570887 L168.147599,89.3376842 C168.147599,88.0604612 169.17583,87.0322306 170.453053,87.0322306 Z M210.22811,77.9407318 C204.688491,77.9407318 200.234386,82.3948471 200.234376,87.9344662 L200.234376,130.979579 L211.575228,130.979579 L211.575228,109.676321 L222.602797,109.676321 L222.602797,130.979579 L233.943649,130.979579 L233.943649,87.9344662 C233.943649,82.3948471 229.489524,77.9407318 223.949915,77.9407318 L210.22811,77.9407318 Z M213.893524,87.0259449 L220.284501,87.0259449 C221.561714,87.0259449 222.602797,88.0670175 222.602797,89.3442406 L222.602797,100.591108 L211.575228,100.591108 L211.575228,89.3442406 C211.575228,88.0670175 212.616301,87.0259449 213.893524,87.0259449 Z M253.646226,77.9407318 C248.106607,77.9407318 243.652501,82.3948471 243.652491,87.9344662 L243.652491,130.979579 L254.993343,130.979579 L254.993343,109.676321 L266.020912,109.676321 L266.020912,130.979579 L277.361764,130.979579 L277.361764,87.9344662 C277.361764,82.3948471 272.907639,77.9407318 267.36803,77.9407318 L253.646226,77.9407318 Z M257.311639,87.0259449 L263.702617,87.0259449 C264.97983,87.0259449 266.020912,88.0670175 266.020912,89.3442406 L266.020912,100.591108 L254.993343,100.591108 L254.993343,89.3442406 C254.993343,88.0670175 256.034416,87.0259449 257.311639,87.0259449 Z M113.345764,77.9407318 L113.345764,130.979579 L124.717945,130.979579 L124.717945,89.3442406 C124.717935,88.0670175 125.727689,87.0259449 127.004912,87.0259449 L133.427218,87.0259449 C134.704441,87.0259449 135.745514,88.0670175 135.745514,89.3442406 L135.745514,130.979579 L147.086366,130.979579 L147.086366,87.9344662 C147.086366,82.3948471 142.632251,77.9407318 137.092632,77.9407318 L113.345764,77.9407318 Z" id="Mask-3" fill="#FFFFFF" sketch:type="MSShapeGroup"></path>
        </g>
    </g>
</svg>